<svg width="240" height="40" viewBox="0 0 240 40" fill="none" xmlns="http://www.w3.org/2000/svg">
<path fill-rule="evenodd" clip-rule="evenodd" d="M76.2539 21.5849L73.0623 15.3124L69.8716 21.5849H76.2539ZM77.7285 24.4458H68.4187L66.8347 27.5724C66.7939 27.6524 66.7107 27.704 66.6205 27.704H63.4032C63.2223 27.704 63.1063 27.5107 63.1912 27.3515L71.1023 12.4244C71.1436 12.3458 71.2259 12.2969 71.3143 12.2969H74.877C74.9659 12.2969 75.0476 12.3458 75.089 12.4244L83.0001 27.3515C83.0845 27.5107 82.9685 27.704 82.7876 27.704H79.5267C79.4361 27.704 79.3534 27.6524 79.3125 27.5724L77.7285 24.4458Z" fill="#041C2C"/>
<path fill-rule="evenodd" clip-rule="evenodd" d="M99.6293 20.0002C99.6293 16.8309 97.1204 15.29 93.4226 15.29H89.0208V24.7104H93.4226C97.1204 24.7104 99.6293 23.1695 99.6293 20.0002ZM103.217 20.0002C103.217 24.7984 99.4973 27.7033 93.6866 27.7033H85.7395C85.6071 27.7033 85.4995 27.5957 85.4995 27.4633V12.5371C85.4995 12.4042 85.6071 12.2966 85.7395 12.2966H93.6866C99.4973 12.2966 103.217 15.2024 103.217 20.0002Z" fill="#041C2C"/>
<path fill-rule="evenodd" clip-rule="evenodd" d="M107.686 12.4318L113.431 24.2038L119.154 12.4318C119.194 12.3491 119.278 12.2971 119.37 12.2971H122.637C122.816 12.2971 122.932 12.4856 122.852 12.6451L115.325 27.5713C115.284 27.6522 115.201 27.7033 115.11 27.7033H111.686C111.595 27.7033 111.513 27.6522 111.472 27.5713L103.945 12.6451C103.864 12.4856 103.98 12.2971 104.159 12.2971H107.471C107.562 12.2971 107.646 12.3491 107.686 12.4318Z" fill="#041C2C"/>
<path fill-rule="evenodd" clip-rule="evenodd" d="M134.649 21.5849L131.458 15.3124L128.267 21.5849H134.649ZM136.124 24.4458H126.814L125.23 27.5724C125.189 27.6524 125.106 27.704 125.016 27.704H121.799C121.618 27.704 121.502 27.5107 121.587 27.3515L129.498 12.4244C129.539 12.3458 129.621 12.2969 129.71 12.2969H133.272C133.361 12.2969 133.443 12.3458 133.484 12.4244L141.395 27.3515C141.48 27.5107 141.364 27.704 141.183 27.704H137.922C137.831 27.704 137.749 27.6524 137.708 27.5724L136.124 24.4458Z" fill="#041C2C"/>
<path fill-rule="evenodd" clip-rule="evenodd" d="M161.436 12.5369V27.4631C161.436 27.5955 161.329 27.7035 161.196 27.7035H158.455C158.391 27.7035 158.33 27.6778 158.284 27.632L147.306 16.5667V27.4631C147.306 27.5955 147.199 27.7035 147.066 27.7035H144.135C144.002 27.7035 143.895 27.5955 143.895 27.4631V12.5369C143.895 12.4044 144.002 12.2969 144.135 12.2969H147.536C147.6 12.2969 147.662 12.3227 147.707 12.3684L158.025 22.8613V12.5369C158.025 12.4044 158.132 12.2969 158.265 12.2969H161.196C161.329 12.2969 161.436 12.4044 161.436 12.5369Z" fill="#041C2C"/>
<path fill-rule="evenodd" clip-rule="evenodd" d="M179.301 15.3345H174.313V27.4638C174.313 27.5958 174.206 27.7038 174.073 27.7038H171.032C170.899 27.7038 170.792 27.5958 170.792 27.4638V15.3345H164.341C164.208 15.3345 164.101 15.2269 164.101 15.094V12.5371C164.101 12.4047 164.208 12.2971 164.341 12.2971H180.65C180.83 12.2971 180.946 12.4891 180.862 12.6491L179.514 15.206C179.472 15.2851 179.39 15.3345 179.301 15.3345Z" fill="#041C2C"/>
<path fill-rule="evenodd" clip-rule="evenodd" d="M192.494 21.5849L189.303 15.3124L186.112 21.5849H192.494ZM193.969 24.4458H184.659L183.075 27.5724C183.034 27.6524 182.951 27.704 182.861 27.704H179.644C179.463 27.704 179.347 27.5107 179.432 27.3515L187.343 12.4244C187.385 12.3458 187.466 12.2969 187.555 12.2969H191.117C191.207 12.2969 191.288 12.3458 191.33 12.4244L199.241 27.3515C199.325 27.5107 199.209 27.704 199.028 27.704H195.767C195.677 27.704 195.594 27.6524 195.553 27.5724L193.969 24.4458Z" fill="#041C2C"/>
<path fill-rule="evenodd" clip-rule="evenodd" d="M219.223 24.5778C217.682 26.6689 214.644 28.1876 210.463 28.1876C204.278 28.1876 200.514 25.1503 200.514 20.0001C200.514 14.8498 204.278 11.8125 210.463 11.8125C214.08 11.8125 216.693 13.1192 218.263 14.5409C218.374 14.6427 218.361 14.8223 218.239 14.9112L215.883 16.6258C215.79 16.6943 215.663 16.6832 215.579 16.6049C214.269 15.3792 212.735 14.8058 210.485 14.8058C206.457 14.8058 204.102 16.5672 204.102 20.0001C204.102 23.4334 206.523 25.1947 210.617 25.1947C212.927 25.1947 214.821 24.6881 215.921 23.3672V21.8707H210.351C210.218 21.8707 210.111 21.7632 210.111 21.6307V19.2503C210.111 19.1174 210.218 19.0103 210.351 19.0103H218.982C219.115 19.0103 219.223 19.1174 219.223 19.2503V24.5778Z" fill="#041C2C"/>
<path fill-rule="evenodd" clip-rule="evenodd" d="M237.673 24.8818L238.984 27.3511C239.069 27.5107 238.953 27.704 238.772 27.704H223.542C223.41 27.704 223.302 27.5955 223.302 27.464V12.5369C223.302 12.4044 223.41 12.2969 223.542 12.2969H238.553C238.734 12.2969 238.849 12.4893 238.765 12.6493L237.46 15.1182C237.419 15.1969 237.337 15.2462 237.248 15.2462H226.802V18.4155H236.708C236.841 18.4155 236.948 18.5231 236.948 18.6555V21.1249C236.948 21.2578 236.841 21.3649 236.708 21.3649H226.802V24.7542H237.461C237.55 24.7542 237.631 24.8031 237.673 24.8818Z" fill="#041C2C"/>
<path fill-rule="evenodd" clip-rule="evenodd" d="M13.2857 33.4802C14.056 32.1576 15.7529 31.7109 17.0755 32.4807C18.3982 33.2509 18.8457 34.9482 18.0755 36.2705C17.3049 37.5931 15.6084 38.0411 14.2857 37.27C12.9631 36.4998 12.5155 34.8038 13.2857 33.4802Z" fill="#0072CE"/>
<mask id="mask0" mask-type="alpha" maskUnits="userSpaceOnUse" x="0" y="34" width="6" height="7">
<path fill-rule="evenodd" clip-rule="evenodd" d="M0 34.8259H5.17419V40.0003H0V34.8259Z" fill="white"/>
</mask>
<g mask="url(#mask0)">
<path fill-rule="evenodd" clip-rule="evenodd" d="M0.351947 36.1109C1.07106 34.8771 2.65461 34.4589 3.88884 35.1775C5.1235 35.8975 5.54128 37.4807 4.82217 38.7149C4.10306 39.95 2.5195 40.3673 1.28528 39.6482C0.0506133 38.9291 -0.367164 37.3455 0.351947 36.1109Z" fill="#0072CE"/>
</g>
<path fill-rule="evenodd" clip-rule="evenodd" d="M39.6326 36.1109C40.3517 34.8771 41.9353 34.4589 43.1699 35.1775C44.4041 35.8975 44.8219 37.4807 44.1033 38.7149C43.3837 39.95 41.8001 40.3673 40.5659 39.6482C39.3313 38.9291 38.9135 37.3455 39.6326 36.1109Z" fill="#0072CE"/>
<path fill-rule="evenodd" clip-rule="evenodd" d="M6.57936 24.6859C7.40114 23.2752 9.21092 22.7979 10.622 23.6201C12.0327 24.4415 12.51 26.2508 11.6882 27.6619C10.8665 29.0726 9.05669 29.5504 7.64558 28.729C6.23492 27.9068 5.75758 26.0975 6.57936 24.6859Z" fill="#0072CE"/>
<path fill-rule="evenodd" clip-rule="evenodd" d="M32.7664 24.6859C33.5882 23.2752 35.398 22.7979 36.8091 23.6201C38.2198 24.4415 38.6971 26.2508 37.8753 27.6619C37.0536 29.0726 35.2438 29.5504 33.8331 28.729C32.4224 27.9068 31.9447 26.0975 32.7664 24.6859Z" fill="#0072CE"/>
<path fill-rule="evenodd" clip-rule="evenodd" d="M12.8068 13.2612C13.7312 11.6741 15.7677 11.1368 17.3544 12.0617C18.9419 12.9861 19.4788 15.0221 18.5544 16.6092C17.6299 18.1963 15.5939 18.7337 14.0068 17.8088C12.4192 16.8843 11.8824 14.8483 12.8068 13.2612Z" fill="#0072CE"/>
<path fill-rule="evenodd" clip-rule="evenodd" d="M25.9004 13.2612C26.8253 11.6741 28.8613 11.1368 30.4484 12.0617C32.0355 12.9861 32.5724 15.0221 31.6479 16.6092C30.7235 18.1963 28.6875 18.7337 27.1004 17.8088C25.5128 16.8843 24.9759 14.8483 25.9004 13.2612Z" fill="#0072CE"/>
<mask id="mask1" mask-type="alpha" maskUnits="userSpaceOnUse" x="18" y="0" width="8" height="8">
<path fill-rule="evenodd" clip-rule="evenodd" d="M18.5316 0.000244141H25.9234V7.39235H18.5316V0.000244141Z" fill="white"/>
</mask>
<g mask="url(#mask1)">
<path fill-rule="evenodd" clip-rule="evenodd" d="M19.0343 1.83631C20.0618 0.0727495 22.3241 -0.524139 24.0876 0.502972C25.8507 1.53053 26.4481 3.79275 25.4205 5.5563C24.3934 7.31986 22.1312 7.91675 20.3676 6.88964C18.6041 5.86208 18.0072 3.59986 19.0343 1.83631Z" fill="#0072CE"/>
</g>
<path fill-rule="evenodd" clip-rule="evenodd" d="M26.3793 33.4802C27.15 32.1576 28.8464 31.7109 30.1691 32.4807C31.4918 33.2509 31.9393 34.9482 31.1691 36.2705C30.3984 37.5931 28.702 38.0411 27.3793 37.27C26.0566 36.4998 25.6091 34.8038 26.3793 33.4802Z" fill="#0072CE"/>
</svg>
