<svg width="519" height="862" viewBox="0 0 519 862" fill="none" xmlns="http://www.w3.org/2000/svg">
<path fill-rule="evenodd" clip-rule="evenodd" d="M284.403 -179.43C277.734 -221.064 283.887 -263.619 282.069 -305.743C280.251 -347.868 268.252 -393.025 234.783 -418.654C188.98 -453.729 123.717 -439.167 68.6773 -421.898C13.6382 -404.63 -49.9732 -387.195 -98.4712 -418.435C-126.958 -436.785 -300.08 -521.972 -382.679 -426.614C-417.488 -386.428 -453.524 -342.237 -453.193 -289.066C-452.898 -241.691 -428.667 -197.857 -420.815 -151.137C-406.256 -64.5152 -448.475 20.0644 -481.893 101.292C-515.309 182.521 -539.63 279.691 -493.64 354.518C-443.569 435.989 -324.759 464.082 -293.396 554.425C-276.247 603.825 -290.989 658.828 -280.951 710.148C-265.406 789.635 -189.139 848.331 -108.864 858.913C-28.5887 869.494 52.8329 838.766 118.302 791.108C183.769 743.45 235.691 679.864 285.851 616.283C355.442 528.073 423.395 438.066 478.877 340.361C479.297 339.621 479.716 338.881 480.134 338.141C548.073 217.903 522.671 66.5047 419.337 -25.096C419.337 -25.096 291.071 -137.797 284.403 -179.43Z" stroke="#0072CE"/>
<path fill-rule="evenodd" clip-rule="evenodd" d="M-76.742 837C-86.513 837 -96.2705 836.367 -105.744 835.118C-141.278 830.434 -176.12 815.097 -203.85 791.932C-232.563 767.946 -251.108 738.05 -257.477 705.477C-261.387 685.486 -261.066 664.249 -260.726 641.765C-260.255 610.565 -259.767 578.302 -270.797 546.531C-290.521 489.71 -338.243 455.929 -384.396 423.261C-419.775 398.217 -453.193 374.562 -473.216 341.98C-506.181 288.342 -501.769 212.592 -459.731 110.401C-455.974 101.27 -452.01 91.871 -448.177 82.7821C-416.206 6.96914 -383.146 -71.4257 -397.199 -155.041C-400.688 -175.798 -406.98 -195.506 -413.065 -214.566C-421.305 -240.377 -429.087 -264.756 -429.24 -289.135C-429.509 -332.355 -400.112 -369.836 -364.573 -410.867C-343.806 -434.843 -313.356 -447 -274.068 -447C-202.561 -447 -126.418 -407.921 -111.402 -398.247C-89.7172 -384.278 -63.7477 -377.196 -34.2133 -377.196C3.16554 -377.196 40.6248 -387.967 75.789 -399.001C101.21 -406.976 134.218 -416.131 164.063 -416.131C187.293 -416.131 205.655 -410.718 220.197 -399.583C232.093 -390.473 241.399 -377.122 247.858 -359.899C253.772 -344.131 257.228 -325.536 258.13 -304.63C258.789 -289.343 258.341 -274.018 257.865 -257.792C257.083 -231.09 256.274 -203.478 260.742 -175.589C263.244 -159.961 274.205 -133.818 337.27 -69.8313C370.143 -36.4773 401.672 -8.68977 403.435 -7.14005C426.713 13.5049 446.051 37.739 460.918 64.8942C475.405 91.3589 485.285 119.905 490.282 149.74C495.28 179.578 495.239 209.781 490.16 239.51C484.944 270.04 474.536 299.261 459.224 326.362L457.991 328.538C406.186 419.773 344.182 503.607 267.023 601.414C216.489 665.473 166.01 726.699 104.203 771.693C46.3557 813.806 -17.9081 837 -76.738 837H-76.742Z" stroke="#0072CE"/>
<path fill-rule="evenodd" clip-rule="evenodd" d="M-75.1275 806C-83.503 806 -91.849 805.459 -99.9352 804.392C-129.522 800.491 -158.551 787.701 -181.676 768.376C-204.684 749.149 -219.458 725.618 -224.401 700.329C-227.668 683.623 -227.372 664.024 -227.058 643.275C-226.57 610.923 -226.017 574.262 -238.87 537.22C-261.913 470.818 -316.137 432.42 -363.978 398.544C-396.577 375.46 -427.366 353.657 -443.952 326.659C-457.04 305.355 -462.502 279.525 -460.649 247.696C-458.641 213.213 -447.712 171.629 -428.167 124.1C-424.444 115.043 -420.526 105.754 -416.739 96.7711C-400.484 58.2099 -383.678 18.3424 -372.618 -23.288C-359.612 -72.2467 -356.718 -116.458 -363.773 -158.447C-367.632 -181.419 -374.266 -202.205 -380.68 -222.305C-388.477 -246.733 -395.207 -267.822 -395.329 -287.322C-395.528 -319.414 -369.719 -351.854 -338.52 -387.889C-323.889 -404.786 -302.188 -413 -272.175 -413C-208.138 -413 -138.094 -376.544 -126.957 -369.366C-100.085 -352.05 -68.3593 -343.27 -32.6618 -343.27C9.15921 -343.27 49.2353 -354.75 86.6992 -366.51C109.921 -373.798 139.845 -382.164 165.332 -382.164C181.502 -382.164 193.172 -378.994 202.058 -372.187C209.132 -366.767 214.912 -358.17 219.236 -346.634C223.961 -334.031 226.741 -318.755 227.497 -301.229C228.105 -287.11 227.674 -272.362 227.218 -256.745C226.392 -228.598 225.539 -199.492 230.476 -168.662C234.098 -146.026 246.926 -115.463 315.65 -45.7097C348.549 -12.317 379.576 15.1356 383.307 18.4196C403.788 36.5964 420.799 57.9259 433.875 81.817C446.627 105.121 455.325 130.263 459.725 156.547C464.126 182.828 464.091 209.426 459.62 235.602C455.032 262.473 445.871 288.199 432.391 312.065L431.177 314.208C380.452 403.574 319.338 486.205 243.185 582.771C194.15 644.952 145.296 704.29 86.8478 746.854C34.4748 784.995 -23.0478 806 -75.1259 806H-75.1275Z" stroke="#0072CE"/>
<path fill-rule="evenodd" clip-rule="evenodd" d="M-62.7777 758C-70.5096 758 -78.2143 757.501 -85.6791 756.518C-112.992 752.92 -139.791 741.127 -161.139 723.308C-182.379 705.579 -196.018 683.882 -200.582 660.564C-203.596 645.16 -203.324 627.088 -203.034 607.956C-202.584 578.126 -202.072 544.322 -213.94 510.167C-235.211 448.94 -285.268 413.535 -329.434 382.298C-359.528 361.012 -387.95 340.909 -403.261 316.015C-415.345 296.372 -420.386 272.555 -418.676 243.206C-416.822 211.411 -406.734 173.067 -388.69 129.242C-385.253 120.892 -381.636 112.326 -378.141 104.043C-363.133 68.4874 -347.619 31.727 -337.409 -6.65955C-325.403 -51.8024 -322.732 -92.568 -329.244 -131.284C-332.807 -152.466 -338.93 -171.632 -344.852 -190.166C-352.049 -212.69 -358.263 -232.136 -358.375 -250.115C-358.559 -279.708 -334.733 -309.618 -305.931 -342.845C-292.424 -358.426 -272.391 -366 -244.684 -366C-185.569 -366 -120.906 -332.384 -110.625 -325.767C-85.817 -309.8 -56.5301 -301.704 -23.5751 -301.704C15.0322 -301.704 52.0285 -312.29 86.6145 -323.133C108.052 -329.853 135.676 -337.567 159.205 -337.567C174.132 -337.567 184.905 -334.644 193.108 -328.367C199.639 -323.369 204.975 -315.443 208.967 -304.806C213.329 -293.185 215.894 -279.099 216.593 -262.939C217.155 -249.921 216.756 -236.322 216.334 -221.923C215.573 -195.969 214.786 -169.132 219.343 -140.704C222.687 -119.833 234.528 -91.6517 297.972 -27.3331C328.344 3.45658 356.986 28.7695 360.431 31.7971C379.338 48.5588 395.041 68.2253 407.113 90.2549C418.885 111.742 426.915 134.926 430.977 159.16C435.04 183.394 435.008 207.919 430.88 232.055C426.645 256.832 418.187 280.552 405.742 302.559L404.622 304.535C357.795 386.936 301.376 463.127 231.076 552.167C185.809 609.502 140.708 664.216 86.7516 703.464C38.403 738.631 -14.701 758 -62.7762 758H-62.7777Z" stroke="#0072CE"/>
<path fill-rule="evenodd" clip-rule="evenodd" d="M-30.1557 641C-36.6641 641 -43.1494 640.579 -49.4329 639.749C-72.4231 636.711 -94.9803 626.754 -112.95 611.71C-130.828 596.742 -142.309 578.422 -146.15 558.734C-148.688 545.728 -148.458 530.471 -148.214 514.317C-147.835 489.131 -147.405 460.59 -157.393 431.752C-175.299 380.058 -217.434 350.166 -254.609 323.793C-279.94 305.821 -303.865 288.848 -316.752 267.83C-326.923 251.245 -331.167 231.136 -329.727 206.357C-328.167 179.51 -319.676 147.138 -304.488 110.136C-301.594 103.085 -298.55 95.8534 -295.607 88.8598C-282.976 58.8402 -269.916 27.8027 -261.323 -4.60623C-251.216 -42.7217 -248.968 -77.1409 -254.45 -109.829C-257.448 -127.713 -262.602 -143.894 -267.587 -159.543C-273.646 -178.56 -278.876 -194.978 -278.971 -210.158C-279.125 -235.143 -259.07 -260.397 -234.826 -288.45C-223.457 -301.606 -206.594 -308 -183.272 -308C-133.513 -308 -79.084 -279.619 -70.43 -274.032C-49.5481 -260.55 -24.8969 -253.715 2.84204 -253.715C35.3401 -253.715 66.4814 -262.652 95.5931 -271.807C113.637 -277.482 136.89 -283.994 156.695 -283.994C169.26 -283.994 178.328 -281.526 185.233 -276.227C190.73 -272.008 195.222 -265.315 198.581 -256.335C202.253 -246.522 204.413 -234.63 205 -220.985C205.473 -209.994 205.138 -198.512 204.783 -186.355C204.142 -164.442 203.479 -141.783 207.315 -117.782C210.13 -100.16 220.097 -76.3659 273.5 -22.0619C299.065 3.93404 323.175 25.3058 326.074 27.8624C341.989 42.0137 355.207 58.6187 365.367 77.2181C375.277 95.3603 382.035 114.934 385.455 135.396C388.875 155.857 388.848 176.563 385.374 196.941C381.808 217.861 374.69 237.887 364.214 256.468L363.271 258.136C323.856 327.709 276.365 392.037 217.191 467.215C179.088 515.622 141.125 561.817 95.7075 594.955C55.0114 624.647 10.3124 641 -30.1541 641H-30.1557Z" stroke="#0072CE"/>
<path fill-rule="evenodd" clip-rule="evenodd" d="M-2.93889 526C-8.32321 526 -13.6884 525.653 -18.887 524.97C-37.9067 522.471 -56.5685 514.275 -71.4348 501.895C-86.2253 489.576 -95.7232 474.501 -98.9009 458.297C-101.001 447.595 -100.81 435.038 -100.609 421.744C-100.294 401.017 -99.9389 377.528 -108.202 353.795C-123.015 311.252 -157.874 286.652 -188.629 264.947C-209.586 250.157 -229.378 236.189 -240.04 218.891C-248.454 205.242 -251.965 188.694 -250.774 168.301C-249.483 146.208 -242.458 119.565 -229.893 89.114C-227.5 83.3122 -224.981 77.3601 -222.547 71.6052C-212.096 46.8999 -201.293 21.3567 -194.183 -5.31567C-185.822 -36.6823 -183.962 -65.0084 -188.497 -91.9097C-190.977 -106.628 -195.242 -119.945 -199.366 -132.823C-204.378 -148.474 -208.704 -161.986 -208.783 -174.479C-208.91 -195.04 -192.319 -215.823 -172.262 -238.91C-162.857 -249.736 -148.906 -255 -129.612 -255C-88.4464 -255 -43.417 -231.642 -36.2581 -227.044C-18.9827 -215.95 1.41145 -210.324 24.3598 -210.324C51.2456 -210.324 77.0081 -217.68 101.092 -225.214C116.021 -229.884 135.257 -235.243 151.642 -235.243C162.036 -235.243 169.539 -233.212 175.252 -228.851C179.799 -225.379 183.515 -219.87 186.295 -212.48C189.333 -204.406 191.119 -194.617 191.605 -183.389C191.996 -174.343 191.719 -164.893 191.425 -154.889C190.895 -136.856 190.346 -118.208 193.52 -98.4557C195.848 -83.9531 204.095 -64.3715 248.275 -19.6807C269.424 1.71379 289.37 19.3021 291.769 21.4059C304.935 33.0525 315.871 46.7171 324.276 62.0243C332.474 76.9546 338.066 93.0633 340.895 109.903C343.724 126.741 343.701 143.782 340.827 160.553C337.878 177.768 331.988 194.251 323.322 209.542L322.542 210.915C289.934 268.171 250.646 321.111 201.691 382.98C170.169 422.818 138.761 460.835 101.187 488.106C67.5197 512.542 30.5406 526 -2.9381 526H-2.93889Z" stroke="#0072CE"/>
<path fill-rule="evenodd" clip-rule="evenodd" d="M17.0586 447C12.4985 447 7.95513 446.706 3.5536 446.124C-12.5521 443.999 -28.355 437.032 -40.9437 426.506C-53.4686 416.033 -61.5107 403.216 -64.2023 389.44C-65.9799 380.34 -65.819 369.664 -65.6485 358.362C-65.3823 340.74 -65.0811 320.77 -72.0786 300.593C-84.6219 264.424 -114.14 243.508 -140.184 225.055C-157.93 212.48 -174.69 200.606 -183.719 185.899C-190.844 174.295 -193.817 160.225 -192.809 142.887C-191.716 124.105 -185.767 101.453 -175.126 75.5634C-173.099 70.6302 -170.967 65.57 -168.906 60.6774C-160.056 39.6718 -150.908 17.9568 -144.887 -4.72043C-137.807 -31.3886 -136.232 -55.4709 -140.072 -78.3428C-142.173 -90.8551 -145.784 -102.178 -149.276 -113.126C-153.52 -126.432 -157.184 -137.92 -157.25 -148.541C-157.359 -166.023 -143.309 -183.693 -126.325 -203.32C-118.36 -212.526 -106.547 -217 -90.2082 -217C-55.349 -217 -17.219 -197.142 -11.1561 -193.232C3.47232 -183.8 20.7422 -179.017 40.1753 -179.017C62.9415 -179.017 84.7579 -185.27 105.153 -191.676C117.794 -195.646 134.083 -200.203 147.958 -200.203C156.76 -200.203 163.113 -198.476 167.95 -194.769C171.801 -191.816 174.948 -187.133 177.301 -180.85C179.874 -173.985 181.387 -165.663 181.798 -156.117C182.13 -148.427 181.895 -140.393 181.646 -131.887C181.197 -116.555 180.732 -100.7 183.42 -83.9064C185.393 -71.5768 192.374 -54.9291 229.787 -16.9335C247.695 1.25567 264.586 16.2094 266.617 17.9975C277.766 27.8999 287.026 39.5178 294.145 52.5319C301.087 65.2253 305.821 78.9209 308.217 93.2372C310.613 107.553 310.594 122.041 308.161 136.3C305.662 150.936 300.675 164.949 293.336 177.95L292.676 179.117C265.063 227.796 231.794 272.805 190.339 325.405C163.646 359.276 137.051 391.597 105.233 414.783C76.7229 435.558 45.4087 447 17.0594 447H17.0586Z" stroke="#0072CE"/>
<path fill-rule="evenodd" clip-rule="evenodd" d="M43.044 346C39.4184 346 35.8056 345.766 32.3049 345.305C19.4971 343.618 6.93042 338.089 -3.0804 329.735C-13.0411 321.422 -19.4366 311.249 -21.577 300.316C-22.9906 293.093 -22.8625 284.621 -22.7263 275.65C-22.5146 261.664 -22.275 245.815 -27.8404 229.8C-37.8154 201.094 -61.2884 184.494 -81.9993 169.848C-96.1109 159.868 -109.439 150.442 -116.62 138.77C-122.285 129.56 -124.65 118.393 -123.848 104.633C-122.979 89.7249 -118.248 71.7471 -109.787 51.1991C-108.175 47.2845 -106.479 43.2689 -104.839 39.3846C-97.8023 22.7145 -90.5272 5.47883 -85.7395 -12.5189C-80.1089 -33.6858 -78.856 -52.7988 -81.9102 -70.9509C-83.5809 -80.8833 -86.4519 -89.869 -89.2298 -98.558C-92.6047 -109.12 -95.5179 -118.237 -95.5705 -126.666C-95.6572 -140.541 -84.4843 -154.565 -70.9784 -170.144C-64.6441 -177.449 -55.2502 -181 -42.2577 -181C-14.5367 -181 15.7863 -165.24 20.6075 -162.137C32.2404 -154.651 45.9748 -150.854 61.4276 -150.854C79.5326 -150.854 96.8814 -155.818 113.1 -160.901C123.152 -164.052 136.106 -167.669 147.139 -167.669C154.139 -167.669 159.191 -166.299 163.038 -163.355C166.101 -161.013 168.602 -157.295 170.474 -152.309C172.52 -146.86 173.724 -140.256 174.051 -132.679C174.314 -126.576 174.127 -120.199 173.93 -113.448C173.572 -101.279 173.202 -88.6965 175.34 -75.3682C176.908 -65.5814 182.461 -52.3693 212.212 -22.2126C226.454 -7.77626 239.886 4.09231 241.501 5.51144C250.367 13.37 257.731 22.5904 263.391 32.9197C268.912 42.9945 272.677 53.8647 274.582 65.2273C276.487 76.5892 276.473 88.0879 274.537 99.4044C272.55 111.021 268.584 122.143 262.749 132.461L262.223 133.388C240.264 172.022 213.808 207.746 180.842 249.493C159.614 276.376 138.466 302.028 113.164 320.429C90.4906 336.919 65.5897 346 43.0448 346H43.044Z" stroke="#0072CE"/>
<path fill-rule="evenodd" clip-rule="evenodd" d="M72.9736 204C70.8258 204 68.6844 203.862 66.6107 203.589C59.0214 202.595 51.5763 199.331 45.6451 194.401C39.7433 189.496 35.9542 183.493 34.6864 177.04C33.8486 172.778 33.9243 167.779 34.0047 162.484C34.1306 154.231 34.2715 144.878 30.9754 135.427C25.0649 118.486 11.1565 108.69 -1.11451 100.047C-9.47544 94.158 -17.3729 88.5949 -21.627 81.7079C-24.9844 76.2716 -26.3852 69.6828 -25.9098 61.5624C-25.3946 52.7643 -22.5914 42.1549 -17.5783 30.029C-16.6235 27.7183 -15.6185 25.3482 -14.647 23.0565C-10.478 13.2184 -6.16738 3.04733 -3.32997 -7.57319C0.00596046 -20.0645 0.748164 -31.3445 -1.06195 -42.0562C-2.05182 -47.9173 -3.75283 -53.2197 -5.3981 -58.3484C-7.39775 -64.5806 -9.12425 -69.9606 -9.1553 -74.9363C-9.20627 -83.1241 -2.58697 -91.3998 5.4156 -100.593C9.16882 -104.904 14.7345 -107 22.4329 -107C38.8569 -107 56.8235 -97.6993 59.68 -95.8682C66.5725 -91.4497 74.7096 -89.2104 83.8661 -89.2104C94.5922 -89.2104 104.872 -92.1386 114.481 -95.1389C120.438 -96.9986 128.112 -99.1325 134.65 -99.1325C138.797 -99.1325 141.791 -98.324 144.07 -96.5872C145.885 -95.2047 147.367 -93.0105 148.476 -90.0688C149.688 -86.8529 150.402 -82.9552 150.595 -78.4836C150.751 -74.8816 150.64 -71.1187 150.523 -67.1354C150.312 -59.9536 150.093 -52.5277 151.359 -44.6625C152.288 -38.8878 155.579 -31.09 173.205 -13.2941C181.644 -4.77498 189.602 2.22926 190.559 3.06714C195.812 7.7044 200.175 13.1455 203.529 19.2413C206.8 25.1873 209.032 31.6017 210.16 38.3071C211.289 45.0125 211.28 51.798 210.133 58.4765C208.956 65.3317 206.607 71.8952 203.149 77.9839L202.837 78.5308C189.827 101.33 174.151 122.411 154.618 147.048C142.041 162.912 129.511 178.051 114.519 188.91C101.086 198.641 86.3316 204 72.9743 204H72.9736Z" stroke="#0072CE"/>
</svg>
