<svg width="510" height="1160" viewBox="0 0 510 1160" fill="none" xmlns="http://www.w3.org/2000/svg">
<g id="Group 19 Copy">
<path id="Stroke 1" fill-rule="evenodd" clip-rule="evenodd" d="M592.043 209.183C567.56 189.42 549.719 162.751 527.677 140.298C505.636 117.843 476.441 98.7851 445.103 101.266C402.216 104.66 373.334 145.288 351.468 182.318C329.601 219.347 303.069 260.744 260.604 267.609C235.661 271.641 97.2225 310.75 99.0818 404.831C99.8656 444.48 101.969 486.96 128.703 516.282C152.523 542.408 187.833 554.631 215.512 576.624C266.83 617.4 285.676 685.363 307.725 747.078C329.774 808.792 364.822 874.81 427.662 893.369C496.081 913.575 575.923 869.894 638.409 904.352C672.576 923.194 691.875 961.05 723.061 984.504C771.363 1020.83 842.921 1015.34 892.673 981.17C942.426 946.998 972.186 889.346 984.655 830.261C997.124 771.178 994.136 710.017 990.174 649.738C984.677 566.109 977.377 482.3 959.323 400.442C959.186 399.822 959.049 399.203 958.911 398.584C936.507 298.017 846.837 226.726 743.855 227.469C743.855 227.469 616.525 228.945 592.043 209.183Z" stroke="#0072CE"/>
<path id="Stroke 3" fill-rule="evenodd" clip-rule="evenodd" d="M899.478 951.918C894.067 956.79 888.347 961.304 882.477 965.336C860.46 980.457 833.508 989.327 806.587 990.31C778.711 991.328 753.516 983.998 733.727 969.114C721.581 959.979 711.156 948.044 700.12 935.408C684.804 917.873 668.967 899.742 646.997 887.625C607.707 865.956 564.414 871.021 522.546 875.921C490.45 879.676 460.134 883.224 432.779 875.142C387.745 861.839 352.371 817.639 324.633 740.016C322.155 733.079 319.658 725.892 317.243 718.941C297.099 660.964 276.27 601.011 226.743 561.657C214.449 551.888 201.125 544.097 188.239 536.564C170.79 526.361 154.309 516.724 142.053 503.283C120.328 479.453 117.895 444.013 117.092 403.542C116.622 379.893 127.416 357.969 149.173 338.379C188.773 302.723 250.451 286.423 263.595 284.3C282.578 281.232 300.496 272.209 316.851 257.483C337.551 238.844 352.919 214.194 366.884 190.542C376.98 173.444 390.689 151.909 407.217 137.027C420.081 125.444 432.952 119.289 446.565 118.212C457.7 117.332 469.52 120.094 481.695 126.423C492.842 132.217 504.039 140.804 514.976 151.946C522.973 160.093 530.376 168.814 538.213 178.048C551.111 193.243 564.448 208.956 580.845 222.192C590.033 229.61 609.155 238.64 676.024 242.671C710.881 244.773 742.214 244.459 743.964 244.44C767.162 244.279 789.97 248.073 811.76 255.717C832.995 263.167 852.718 274.069 870.38 288.119C888.044 302.171 903.1 318.938 915.13 337.954C927.483 357.483 936.308 378.875 941.358 401.537L941.762 403.357C958.621 479.776 966.137 557.176 972.237 649.881C976.232 710.597 978.844 769.715 967.079 825.482C956.068 877.677 932.059 922.581 899.48 951.916L899.478 951.918Z" stroke="#0072CE"/>
<path id="Stroke 5" fill-rule="evenodd" clip-rule="evenodd" d="M884.455 935.05C879.814 939.228 874.919 943.093 869.905 946.535C851.561 959.134 829.086 966.522 806.619 967.339C784.264 968.153 764.323 962.47 748.952 950.907C738.797 943.269 729.171 932.249 718.98 920.581C703.091 902.39 685.084 881.775 659.459 867.638C613.521 842.298 564.293 848.052 520.86 853.129C491.265 856.587 463.313 859.854 440.636 853.152C422.742 847.864 406.813 836.259 391.94 817.677C375.829 797.545 361.112 769.023 348.202 732.903C345.741 726.021 343.272 718.913 340.883 712.04C330.629 682.537 320.028 652.034 305.362 623.42C288.113 589.77 267.632 563.8 242.749 544.026C229.135 533.207 215.077 524.986 201.482 517.035C184.959 507.373 170.695 499.032 160.887 488.275C144.747 470.57 142.844 439.696 142.133 404.139C141.8 387.464 149.723 372.08 166.354 357.105C201.839 325.154 258.864 310.43 268.621 308.854C292.162 305.053 314.128 294.095 333.909 276.283C357.084 255.417 373.557 229.052 388.444 203.835C397.671 188.205 410.074 168.634 424.198 155.917C433.158 147.849 441.209 143.785 449.533 143.128C456.16 142.605 463.658 144.49 471.816 148.732C480.73 153.366 489.901 160.455 499.074 169.8C506.464 177.329 513.592 185.726 521.14 194.617C534.742 210.644 548.809 227.217 566.944 241.857C580.258 252.607 602.633 263.163 675.559 267.57C710.47 269.68 741.377 269.428 745.084 269.389C765.513 269.254 785.594 272.599 804.774 279.329C823.481 285.894 840.86 295.503 856.428 307.888C871.994 320.273 885.261 335.046 895.859 351.798C906.739 368.995 914.513 387.837 918.964 407.804L919.362 409.598C935.893 484.484 943.302 560.819 949.339 652.387C953.227 711.349 955.795 768.643 944.668 821.419C934.698 868.71 913.315 909.064 884.456 935.049L884.455 935.05Z" stroke="#0072CE"/>
<path id="Stroke 7" fill-rule="evenodd" clip-rule="evenodd" d="M868.446 902.246C864.162 906.103 859.644 909.671 855.016 912.85C838.085 924.48 817.346 931.309 796.617 932.075C775.993 932.837 757.6 927.606 743.424 916.948C734.06 909.907 725.185 899.747 715.789 888.99C701.139 872.218 684.539 853.211 660.904 840.185C618.537 816.834 573.117 822.168 533.044 826.875C505.737 830.082 479.948 833.11 459.03 826.94C442.524 822.072 427.835 811.376 414.124 794.242C399.27 775.68 385.708 749.378 373.817 716.065C371.551 709.718 369.277 703.162 367.076 696.824C357.633 669.613 347.869 641.481 334.353 615.094C318.458 584.063 299.577 560.117 276.631 541.889C264.078 531.917 251.112 524.34 238.574 517.014C223.336 508.11 210.18 500.423 201.138 490.506C186.256 474.182 184.518 445.703 183.881 412.903C183.583 397.521 190.9 383.325 206.253 369.502C239.008 340.009 291.627 326.395 300.629 324.936C322.35 321.417 342.621 311.297 360.881 294.855C382.273 275.594 397.485 251.264 411.233 227.994C419.755 213.571 431.209 195.51 444.246 183.771C452.517 176.324 459.946 172.571 467.626 171.96C473.741 171.474 480.657 173.209 488.181 177.117C496.403 181.387 504.86 187.921 513.318 196.537C520.131 203.478 526.703 211.221 533.661 219.418C546.202 234.195 559.17 249.475 575.894 262.97C588.171 272.88 608.808 282.605 676.087 286.63C708.294 288.557 736.807 288.309 740.228 288.27C759.076 288.135 777.6 291.21 795.292 297.407C812.547 303.453 828.576 312.308 842.931 323.724C857.286 335.14 869.517 348.76 879.286 364.208C889.314 380.065 896.475 397.443 900.572 415.859L900.938 417.514C916.148 486.585 922.942 556.997 928.461 641.462C932.016 695.851 934.354 748.702 924.06 797.393C914.836 841.022 895.085 878.26 868.447 902.245L868.446 902.246Z" stroke="#0072CE"/>
<path id="Stroke 9" fill-rule="evenodd" clip-rule="evenodd" d="M827.302 821.502C823.698 824.747 819.897 827.748 816.003 830.42C801.756 840.198 784.294 845.925 766.834 846.543C749.462 847.158 733.96 842.726 722.004 833.726C714.106 827.78 706.617 819.206 698.688 810.128C686.325 795.976 672.315 779.938 652.388 768.93C616.668 749.197 578.414 753.632 544.662 757.545C521.665 760.21 499.943 762.729 482.315 757.501C468.403 753.377 456.015 744.345 444.443 729.888C431.905 714.226 420.446 692.045 410.385 663.958C408.467 658.606 406.543 653.078 404.681 647.734C396.69 624.793 388.427 601.073 377.007 578.821C363.576 552.649 347.639 532.446 328.285 517.056C317.697 508.636 306.765 502.234 296.193 496.043C283.345 488.521 272.253 482.026 264.622 473.657C252.065 459.882 250.563 435.881 249.983 408.24C249.711 395.278 255.857 383.325 268.771 371.698C296.325 346.888 340.632 335.486 348.213 334.269C366.506 331.332 383.568 322.83 398.928 309C416.924 292.797 429.707 272.316 441.256 252.725C448.415 240.582 458.04 225.378 469.007 215.504C475.964 209.239 482.218 206.086 488.687 205.582C493.837 205.18 499.666 206.651 506.009 209.955C512.94 213.564 520.073 219.081 527.209 226.353C532.958 232.211 538.505 238.744 544.377 245.661C554.961 258.13 565.905 271.023 580.011 282.417C590.367 290.784 607.764 299.006 664.444 302.487C691.577 304.154 715.597 303.982 718.478 303.954C734.355 303.865 749.964 306.481 764.875 311.727C779.419 316.844 792.932 324.327 805.041 333.966C817.149 343.605 827.47 355.098 835.72 368.129C844.188 381.505 850.244 396.157 853.719 411.682L854.029 413.077C866.934 471.301 872.75 530.644 877.512 601.828C880.578 647.664 882.618 692.203 874.011 733.22C866.298 769.973 849.71 801.325 827.303 821.501L827.302 821.502Z" stroke="#0072CE"/>
<path id="Stroke 11" fill-rule="evenodd" clip-rule="evenodd" d="M785.114 744.484C782.13 747.171 778.983 749.656 775.761 751.871C763.971 759.976 749.535 764.742 735.111 765.293C720.761 765.84 707.967 762.217 698.112 754.814C691.602 749.925 685.436 742.864 678.907 735.388C668.729 723.734 657.193 710.526 640.759 701.484C611.3 685.276 579.692 689.025 551.805 692.332C532.803 694.585 514.856 696.713 500.307 692.438C488.826 689.066 478.615 681.638 469.088 669.731C458.769 656.831 449.355 638.545 441.108 615.382C439.537 610.969 437.96 606.41 436.434 602.003C429.886 583.083 423.115 563.522 413.733 545.177C402.7 523.605 389.582 506.963 373.631 494.303C364.905 487.376 355.889 482.116 347.171 477.03C336.577 470.849 327.43 465.512 321.146 458.621C310.805 447.279 309.619 427.47 309.203 404.653C309.009 393.954 314.111 384.073 324.805 374.444C347.62 353.901 384.244 344.387 390.508 343.366C405.624 340.899 419.737 333.843 432.456 322.391C447.357 308.974 457.961 292.037 467.546 275.839C473.488 265.798 481.472 253.226 490.553 245.049C496.314 239.862 501.487 237.245 506.831 236.813C511.086 236.47 515.896 237.672 521.129 240.384C526.845 243.347 532.725 247.886 538.602 253.872C543.338 258.695 547.904 264.076 552.739 269.772C561.452 280.04 570.462 290.659 582.087 300.032C590.622 306.916 604.973 313.663 651.782 316.408C674.189 317.722 694.029 317.526 696.41 317.496C709.524 317.386 722.41 319.509 734.715 323.806C746.716 327.998 757.861 334.143 767.84 342.073C777.819 350.002 786.318 359.467 793.102 370.204C800.066 381.227 805.035 393.309 807.87 406.116L808.123 407.268C818.65 455.302 823.318 504.276 827.089 563.027C829.517 600.858 831.099 637.621 823.896 671.5C817.442 701.857 803.67 727.776 785.115 744.483L785.114 744.484Z" stroke="#0072CE"/>
<path id="Stroke 13" fill-rule="evenodd" clip-rule="evenodd" d="M756.836 689.036C754.309 691.311 751.645 693.415 748.917 695.288C738.934 702.145 726.703 706.169 714.478 706.617C702.314 707.063 691.465 703.974 683.102 697.685C677.578 693.531 672.342 687.536 666.799 681.19C658.156 671.294 648.361 660.081 634.419 652.393C609.428 638.613 582.641 641.751 559.006 644.52C542.902 646.406 527.693 648.188 515.355 644.545C505.619 641.671 496.953 635.359 488.863 625.251C480.1 614.3 472.096 598.783 465.077 579.132C463.739 575.388 462.397 571.521 461.098 567.782C455.523 551.731 449.759 535.137 441.783 519.57C432.403 501.264 421.263 487.137 407.726 476.381C400.321 470.498 392.672 466.026 385.276 461.703C376.287 456.448 368.527 451.912 363.192 446.06C354.412 436.43 353.381 419.632 353.001 400.286C352.822 391.213 357.135 382.841 366.187 374.69C385.5 357.301 416.531 349.281 421.84 348.422C434.65 346.35 446.604 340.385 457.371 330.69C469.984 319.333 478.952 304.986 487.056 291.263C492.079 282.758 498.83 272.107 506.518 265.186C511.394 260.794 515.776 258.582 520.305 258.223C523.911 257.938 527.991 258.962 532.429 261.269C537.279 263.789 542.268 267.645 547.258 272.728C551.278 276.823 555.155 281.391 559.26 286.227C566.659 294.945 574.31 303.96 584.177 311.923C591.42 317.77 603.592 323.51 643.273 325.896C662.268 327.039 679.086 326.898 681.103 326.875C692.219 326.799 703.145 328.616 713.581 332.275C723.759 335.844 733.213 341.069 741.682 347.805C750.151 354.541 757.367 362.577 763.132 371.691C769.048 381.046 773.275 391.297 775.694 402.16L775.911 403.136C784.894 443.879 788.914 485.411 792.185 535.231C794.291 567.311 795.68 598.484 789.617 627.202C784.185 652.934 772.543 674.894 756.836 689.036L756.836 689.036Z" stroke="#0072CE"/>
<path id="Stroke 15" fill-rule="evenodd" clip-rule="evenodd" d="M720.259 621.763C718.252 623.57 716.134 625.241 713.966 626.73C706.031 632.178 696.307 635.37 686.586 635.719C676.912 636.066 668.282 633.602 661.628 628.595C657.232 625.287 653.065 620.515 648.652 615.464C641.773 607.587 633.977 598.662 622.884 592.539C603.001 581.562 581.701 584.041 562.908 586.228C550.102 587.718 538.008 589.125 528.193 586.22C520.449 583.927 513.554 578.902 507.114 570.856C500.137 562.14 493.763 549.794 488.168 534.159C487.102 531.181 486.032 528.104 484.997 525.129C480.553 512.359 475.959 499.156 469.606 486.77C462.134 472.203 453.266 460.959 442.495 452.397C436.601 447.711 430.516 444.15 424.631 440.707C417.479 436.522 411.306 432.908 407.06 428.251C400.071 420.586 399.241 407.224 398.925 391.836C398.777 384.62 402.202 377.964 409.395 371.487C424.742 357.668 449.415 351.308 453.636 350.629C463.822 348.989 473.325 344.252 481.88 336.548C491.904 327.523 499.026 316.117 505.462 305.208C509.451 298.446 514.813 289.979 520.922 284.479C524.797 280.989 528.28 279.232 531.882 278.95C534.75 278.725 537.994 279.543 541.525 281.38C545.384 283.388 549.354 286.457 553.325 290.503C556.525 293.763 559.611 297.399 562.879 301.249C568.769 308.188 574.858 315.363 582.71 321.703C588.474 326.358 598.158 330.931 629.715 332.855C644.822 333.776 658.196 333.674 659.8 333.658C668.64 333.604 677.33 335.056 685.631 337.973C693.727 340.819 701.25 344.981 707.989 350.344C714.727 355.707 720.472 362.103 725.061 369.356C729.773 376.8 733.141 384.957 735.072 393.598L735.245 394.375C742.414 426.787 745.638 459.823 748.271 499.452C749.967 524.969 751.091 549.765 746.288 572.601C741.984 593.065 732.741 610.524 720.259 621.763L720.259 621.763Z" stroke="#0072CE"/>
<path id="Stroke 17" fill-rule="evenodd" clip-rule="evenodd" d="M665.968 526.897C664.776 527.971 663.519 528.964 662.231 529.85C657.523 533.091 651.762 535.002 646.009 535.233C640.285 535.463 635.186 534.029 631.261 531.085C628.669 529.141 626.215 526.331 623.617 523.356C619.567 518.718 614.977 513.462 608.43 509.87C596.693 503.432 584.084 504.952 572.959 506.293C565.38 507.206 558.22 508.069 552.421 506.377C547.844 505.041 543.777 502.088 539.988 497.349C535.882 492.214 532.142 484.932 528.872 475.704C528.248 473.946 527.623 472.13 527.018 470.374C524.421 462.837 521.737 455.044 518.01 447.739C513.627 439.147 508.408 432.522 502.057 427.489C498.582 424.734 494.991 422.645 491.518 420.624C487.297 418.168 483.653 416.048 481.152 413.305C477.037 408.792 476.58 400.896 476.432 391.8C476.364 387.535 478.407 383.592 482.679 379.745C491.795 371.537 506.409 367.715 508.908 367.302C514.939 366.307 520.573 363.482 525.655 358.907C531.608 353.546 535.852 346.786 539.687 340.321C542.065 336.313 545.259 331.295 548.887 328.028C551.189 325.955 553.254 324.908 555.386 324.732C557.083 324.591 559.001 325.067 561.085 326.143C563.363 327.32 565.705 329.125 568.044 331.507C569.929 333.426 571.745 335.567 573.669 337.834C577.136 341.921 580.721 346.147 585.35 349.875C588.748 352.612 594.467 355.29 613.133 356.347C622.069 356.853 629.982 356.759 630.931 356.745C636.161 356.691 641.299 357.527 646.203 359.23C650.987 360.892 655.427 363.332 659.4 366.486C663.374 369.639 666.756 373.405 669.453 377.681C672.222 382.069 674.194 386.882 675.314 391.985L675.414 392.444C679.574 411.585 681.396 431.105 682.853 454.525C683.792 469.604 684.394 484.259 681.494 497.77C678.896 509.878 673.382 520.222 665.968 526.897L665.968 526.897Z" stroke="#0072CE"/>
</g>
</svg>
